<mxfile host="app.diagrams.net" modified="2020-09-21T03:27:19.825Z" agent="5.0 (Windows NT 10.0; Win64; x64) AppleWebKit/537.36 (KHTML, like Gecko) Chrome/85.0.4183.102 Safari/537.36" etag="O9t0om-BrHH34FvAGCQy" version="13.7.3" type="github">
  <diagram id="ww8oA32lZx4_oMnoj7u3" name="Page-1">
    <mxGraphModel dx="782" dy="475" grid="1" gridSize="10" guides="1" tooltips="1" connect="1" arrows="1" fold="1" page="1" pageScale="1" pageWidth="850" pageHeight="1100" math="0" shadow="0">
      <root>
        <mxCell id="0" />
        <mxCell id="1" parent="0" />
        <mxCell id="jBAg-kV6ZiIzho9F9cjQ-3" value="" style="edgeStyle=orthogonalEdgeStyle;rounded=0;orthogonalLoop=1;jettySize=auto;html=1;" edge="1" parent="1" source="jBAg-kV6ZiIzho9F9cjQ-1" target="jBAg-kV6ZiIzho9F9cjQ-2">
          <mxGeometry relative="1" as="geometry">
            <Array as="points">
              <mxPoint x="210" y="200" />
              <mxPoint x="210" y="200" />
            </Array>
          </mxGeometry>
        </mxCell>
        <mxCell id="jBAg-kV6ZiIzho9F9cjQ-1" value="Start" style="ellipse;whiteSpace=wrap;html=1;" vertex="1" parent="1">
          <mxGeometry x="150" y="50" width="120" height="80" as="geometry" />
        </mxCell>
        <mxCell id="jBAg-kV6ZiIzho9F9cjQ-5" value="" style="edgeStyle=orthogonalEdgeStyle;rounded=0;orthogonalLoop=1;jettySize=auto;html=1;" edge="1" parent="1" source="jBAg-kV6ZiIzho9F9cjQ-2" target="jBAg-kV6ZiIzho9F9cjQ-4">
          <mxGeometry relative="1" as="geometry" />
        </mxCell>
        <mxCell id="jBAg-kV6ZiIzho9F9cjQ-2" value="Enter Starting Balance in dollars" style="shape=parallelogram;perimeter=parallelogramPerimeter;whiteSpace=wrap;html=1;fixedSize=1;" vertex="1" parent="1">
          <mxGeometry x="125" y="220" width="170" height="60" as="geometry" />
        </mxCell>
        <mxCell id="jBAg-kV6ZiIzho9F9cjQ-7" value="no" style="edgeStyle=orthogonalEdgeStyle;rounded=0;orthogonalLoop=1;jettySize=auto;html=1;" edge="1" parent="1" source="jBAg-kV6ZiIzho9F9cjQ-4" target="jBAg-kV6ZiIzho9F9cjQ-6">
          <mxGeometry relative="1" as="geometry" />
        </mxCell>
        <mxCell id="jBAg-kV6ZiIzho9F9cjQ-10" value="yes" style="edgeStyle=orthogonalEdgeStyle;rounded=0;orthogonalLoop=1;jettySize=auto;html=1;" edge="1" parent="1" source="jBAg-kV6ZiIzho9F9cjQ-4" target="jBAg-kV6ZiIzho9F9cjQ-9">
          <mxGeometry relative="1" as="geometry" />
        </mxCell>
        <mxCell id="jBAg-kV6ZiIzho9F9cjQ-4" value="Input is a number" style="rhombus;whiteSpace=wrap;html=1;" vertex="1" parent="1">
          <mxGeometry x="170" y="350" width="80" height="80" as="geometry" />
        </mxCell>
        <mxCell id="jBAg-kV6ZiIzho9F9cjQ-8" style="edgeStyle=orthogonalEdgeStyle;rounded=0;orthogonalLoop=1;jettySize=auto;html=1;exitX=0.5;exitY=0;exitDx=0;exitDy=0;entryX=1;entryY=0.467;entryDx=0;entryDy=0;entryPerimeter=0;" edge="1" parent="1" source="jBAg-kV6ZiIzho9F9cjQ-6" target="jBAg-kV6ZiIzho9F9cjQ-2">
          <mxGeometry relative="1" as="geometry" />
        </mxCell>
        <mxCell id="jBAg-kV6ZiIzho9F9cjQ-6" value="Print &quot;Not a Valid Input" style="shape=parallelogram;perimeter=parallelogramPerimeter;whiteSpace=wrap;html=1;fixedSize=1;" vertex="1" parent="1">
          <mxGeometry x="310" y="360" width="120" height="60" as="geometry" />
        </mxCell>
        <mxCell id="jBAg-kV6ZiIzho9F9cjQ-12" value="" style="edgeStyle=orthogonalEdgeStyle;rounded=0;orthogonalLoop=1;jettySize=auto;html=1;" edge="1" parent="1" source="jBAg-kV6ZiIzho9F9cjQ-9" target="jBAg-kV6ZiIzho9F9cjQ-11">
          <mxGeometry relative="1" as="geometry" />
        </mxCell>
        <mxCell id="jBAg-kV6ZiIzho9F9cjQ-9" value="Enter Yearly Contribution in dollars" style="shape=parallelogram;perimeter=parallelogramPerimeter;whiteSpace=wrap;html=1;fixedSize=1;" vertex="1" parent="1">
          <mxGeometry x="120" y="520" width="180" height="60" as="geometry" />
        </mxCell>
        <mxCell id="jBAg-kV6ZiIzho9F9cjQ-14" value="no" style="edgeStyle=orthogonalEdgeStyle;rounded=0;orthogonalLoop=1;jettySize=auto;html=1;" edge="1" parent="1" source="jBAg-kV6ZiIzho9F9cjQ-11" target="jBAg-kV6ZiIzho9F9cjQ-13">
          <mxGeometry relative="1" as="geometry" />
        </mxCell>
        <mxCell id="jBAg-kV6ZiIzho9F9cjQ-16" value="" style="edgeStyle=orthogonalEdgeStyle;rounded=0;orthogonalLoop=1;jettySize=auto;html=1;" edge="1" parent="1" source="jBAg-kV6ZiIzho9F9cjQ-11" target="jBAg-kV6ZiIzho9F9cjQ-15">
          <mxGeometry relative="1" as="geometry" />
        </mxCell>
        <mxCell id="jBAg-kV6ZiIzho9F9cjQ-17" value="yes" style="edgeLabel;html=1;align=center;verticalAlign=middle;resizable=0;points=[];" vertex="1" connectable="0" parent="jBAg-kV6ZiIzho9F9cjQ-16">
          <mxGeometry x="-0.2296" y="1" relative="1" as="geometry">
            <mxPoint as="offset" />
          </mxGeometry>
        </mxCell>
        <mxCell id="jBAg-kV6ZiIzho9F9cjQ-11" value="Input is a number" style="rhombus;whiteSpace=wrap;html=1;" vertex="1" parent="1">
          <mxGeometry x="170" y="650" width="80" height="80" as="geometry" />
        </mxCell>
        <mxCell id="jBAg-kV6ZiIzho9F9cjQ-18" style="edgeStyle=orthogonalEdgeStyle;rounded=0;orthogonalLoop=1;jettySize=auto;html=1;exitX=0.5;exitY=0;exitDx=0;exitDy=0;entryX=1;entryY=0.5;entryDx=0;entryDy=0;" edge="1" parent="1" source="jBAg-kV6ZiIzho9F9cjQ-13" target="jBAg-kV6ZiIzho9F9cjQ-9">
          <mxGeometry relative="1" as="geometry">
            <mxPoint x="330" y="542" as="targetPoint" />
            <Array as="points">
              <mxPoint x="380" y="660" />
              <mxPoint x="380" y="550" />
            </Array>
          </mxGeometry>
        </mxCell>
        <mxCell id="jBAg-kV6ZiIzho9F9cjQ-13" value="Print &quot;Not a Valid Input" style="shape=parallelogram;perimeter=parallelogramPerimeter;whiteSpace=wrap;html=1;fixedSize=1;" vertex="1" parent="1">
          <mxGeometry x="310" y="660" width="120" height="60" as="geometry" />
        </mxCell>
        <mxCell id="jBAg-kV6ZiIzho9F9cjQ-20" value="" style="edgeStyle=orthogonalEdgeStyle;rounded=0;orthogonalLoop=1;jettySize=auto;html=1;" edge="1" parent="1" source="jBAg-kV6ZiIzho9F9cjQ-15" target="jBAg-kV6ZiIzho9F9cjQ-19">
          <mxGeometry relative="1" as="geometry" />
        </mxCell>
        <mxCell id="jBAg-kV6ZiIzho9F9cjQ-15" value="Enter Average Return on Investment as %" style="shape=parallelogram;perimeter=parallelogramPerimeter;whiteSpace=wrap;html=1;fixedSize=1;" vertex="1" parent="1">
          <mxGeometry x="120" y="820" width="180" height="60" as="geometry" />
        </mxCell>
        <mxCell id="jBAg-kV6ZiIzho9F9cjQ-22" value="no" style="edgeStyle=orthogonalEdgeStyle;rounded=0;orthogonalLoop=1;jettySize=auto;html=1;" edge="1" parent="1" source="jBAg-kV6ZiIzho9F9cjQ-19" target="jBAg-kV6ZiIzho9F9cjQ-21">
          <mxGeometry relative="1" as="geometry" />
        </mxCell>
        <mxCell id="jBAg-kV6ZiIzho9F9cjQ-24" value="yes" style="edgeStyle=orthogonalEdgeStyle;rounded=0;orthogonalLoop=1;jettySize=auto;html=1;" edge="1" parent="1" source="jBAg-kV6ZiIzho9F9cjQ-19" target="jBAg-kV6ZiIzho9F9cjQ-23">
          <mxGeometry relative="1" as="geometry" />
        </mxCell>
        <mxCell id="jBAg-kV6ZiIzho9F9cjQ-19" value="Input is a number" style="rhombus;whiteSpace=wrap;html=1;" vertex="1" parent="1">
          <mxGeometry x="165" y="950" width="90" height="80" as="geometry" />
        </mxCell>
        <mxCell id="jBAg-kV6ZiIzho9F9cjQ-25" style="edgeStyle=orthogonalEdgeStyle;rounded=0;orthogonalLoop=1;jettySize=auto;html=1;exitX=0.5;exitY=0;exitDx=0;exitDy=0;entryX=1;entryY=0.5;entryDx=0;entryDy=0;entryPerimeter=0;" edge="1" parent="1" source="jBAg-kV6ZiIzho9F9cjQ-21" target="jBAg-kV6ZiIzho9F9cjQ-15">
          <mxGeometry relative="1" as="geometry" />
        </mxCell>
        <mxCell id="jBAg-kV6ZiIzho9F9cjQ-21" value="Print &quot;Not a Valid Input" style="shape=parallelogram;perimeter=parallelogramPerimeter;whiteSpace=wrap;html=1;fixedSize=1;" vertex="1" parent="1">
          <mxGeometry x="320" y="960" width="120" height="60" as="geometry" />
        </mxCell>
        <mxCell id="jBAg-kV6ZiIzho9F9cjQ-27" value="" style="edgeStyle=orthogonalEdgeStyle;rounded=0;orthogonalLoop=1;jettySize=auto;html=1;" edge="1" parent="1" source="jBAg-kV6ZiIzho9F9cjQ-23" target="jBAg-kV6ZiIzho9F9cjQ-26">
          <mxGeometry relative="1" as="geometry" />
        </mxCell>
        <mxCell id="jBAg-kV6ZiIzho9F9cjQ-23" value="Enter Number of years for the report" style="shape=parallelogram;perimeter=parallelogramPerimeter;whiteSpace=wrap;html=1;fixedSize=1;" vertex="1" parent="1">
          <mxGeometry x="115" y="1120" width="190" height="60" as="geometry" />
        </mxCell>
        <mxCell id="jBAg-kV6ZiIzho9F9cjQ-29" value="no" style="edgeStyle=orthogonalEdgeStyle;rounded=0;orthogonalLoop=1;jettySize=auto;html=1;" edge="1" parent="1" source="jBAg-kV6ZiIzho9F9cjQ-26" target="jBAg-kV6ZiIzho9F9cjQ-28">
          <mxGeometry relative="1" as="geometry" />
        </mxCell>
        <mxCell id="jBAg-kV6ZiIzho9F9cjQ-31" value="yes" style="edgeStyle=orthogonalEdgeStyle;rounded=0;orthogonalLoop=1;jettySize=auto;html=1;" edge="1" parent="1" source="jBAg-kV6ZiIzho9F9cjQ-26" target="jBAg-kV6ZiIzho9F9cjQ-30">
          <mxGeometry relative="1" as="geometry" />
        </mxCell>
        <mxCell id="jBAg-kV6ZiIzho9F9cjQ-26" value="Input is a number" style="rhombus;whiteSpace=wrap;html=1;" vertex="1" parent="1">
          <mxGeometry x="170" y="1250" width="80" height="80" as="geometry" />
        </mxCell>
        <mxCell id="jBAg-kV6ZiIzho9F9cjQ-32" style="edgeStyle=orthogonalEdgeStyle;rounded=0;orthogonalLoop=1;jettySize=auto;html=1;exitX=0.5;exitY=0;exitDx=0;exitDy=0;entryX=1;entryY=0.25;entryDx=0;entryDy=0;" edge="1" parent="1" source="jBAg-kV6ZiIzho9F9cjQ-28" target="jBAg-kV6ZiIzho9F9cjQ-23">
          <mxGeometry relative="1" as="geometry">
            <Array as="points">
              <mxPoint x="370" y="1136" />
            </Array>
          </mxGeometry>
        </mxCell>
        <mxCell id="jBAg-kV6ZiIzho9F9cjQ-28" value="Print &quot;Not a Valid Input" style="shape=parallelogram;perimeter=parallelogramPerimeter;whiteSpace=wrap;html=1;fixedSize=1;" vertex="1" parent="1">
          <mxGeometry x="310" y="1260" width="120" height="60" as="geometry" />
        </mxCell>
        <mxCell id="jBAg-kV6ZiIzho9F9cjQ-34" value="" style="edgeStyle=orthogonalEdgeStyle;rounded=0;orthogonalLoop=1;jettySize=auto;html=1;" edge="1" parent="1" source="jBAg-kV6ZiIzho9F9cjQ-30" target="jBAg-kV6ZiIzho9F9cjQ-33">
          <mxGeometry relative="1" as="geometry" />
        </mxCell>
        <mxCell id="jBAg-kV6ZiIzho9F9cjQ-30" value="Calculate Total for all years" style="shape=parallelogram;perimeter=parallelogramPerimeter;whiteSpace=wrap;html=1;fixedSize=1;" vertex="1" parent="1">
          <mxGeometry x="122.5" y="1420" width="175" height="60" as="geometry" />
        </mxCell>
        <mxCell id="jBAg-kV6ZiIzho9F9cjQ-36" value="" style="edgeStyle=orthogonalEdgeStyle;rounded=0;orthogonalLoop=1;jettySize=auto;html=1;" edge="1" parent="1" source="jBAg-kV6ZiIzho9F9cjQ-33" target="jBAg-kV6ZiIzho9F9cjQ-35">
          <mxGeometry relative="1" as="geometry" />
        </mxCell>
        <mxCell id="jBAg-kV6ZiIzho9F9cjQ-33" value="Display answers" style="shape=parallelogram;perimeter=parallelogramPerimeter;whiteSpace=wrap;html=1;fixedSize=1;" vertex="1" parent="1">
          <mxGeometry x="150" y="1560" width="120" height="60" as="geometry" />
        </mxCell>
        <mxCell id="jBAg-kV6ZiIzho9F9cjQ-35" value="End" style="ellipse;whiteSpace=wrap;html=1;" vertex="1" parent="1">
          <mxGeometry x="150" y="1690" width="120" height="80" as="geometry" />
        </mxCell>
      </root>
    </mxGraphModel>
  </diagram>
</mxfile>
